<svg width="160" height="25" viewBox="0 0 160 25" fill="none" xmlns="http://www.w3.org/2000/svg">
<path d="M0 16.7458V2.45618H5.08498C6.64104 2.45618 7.99101 2.74961 9.13721 3.33648C10.2834 3.92335 11.1749 4.75589 11.8163 5.83409C12.4554 6.91229 12.775 8.17475 12.775 9.62145C12.775 11.0682 12.4554 12.3238 11.8163 13.3883C11.1772 14.4529 10.2834 15.2786 9.13721 15.8655C7.99101 16.4523 6.63872 16.7458 5.08498 16.7458H0ZM2.93845 14.2891H4.98078C6.50905 14.2891 7.68536 13.8797 8.51201 13.0608C9.33867 12.2419 9.75315 11.0954 9.75315 9.62145C9.75315 8.14745 9.33867 6.98736 8.51201 6.14117C7.68536 5.29499 6.50673 4.8719 4.98078 4.8719H2.93845V14.2891Z" fill="#DDDDDD"/>
<path d="M19.4021 16.889C18.3879 16.889 17.4917 16.6411 16.7137 16.1429C15.9357 15.6447 15.3244 14.9555 14.8798 14.0752C14.4352 13.1949 14.2129 12.1963 14.2129 11.0772C14.2129 9.95802 14.4352 8.94123 14.8798 8.06775C15.3244 7.19427 15.9357 6.50959 16.7137 6.01143C17.4917 5.51328 18.3879 5.26306 19.4021 5.26306C20.319 5.26306 21.1179 5.49508 21.7987 5.95912C22.4795 6.42315 22.9727 7.06462 23.2783 7.8835V5.40637H26.2376V16.748H24.8205C24.3481 16.748 23.973 16.6092 23.6951 16.3294C23.4173 16.0496 23.2783 15.6789 23.2783 15.2126V14.2504C22.9727 15.0829 22.4795 15.7312 21.7987 16.1952C21.1179 16.6593 20.319 16.8913 19.4021 16.8913V16.889ZM20.2357 14.3709C20.7775 14.3709 21.2777 14.2413 21.7362 13.9819C22.1946 13.7226 22.5651 13.3473 22.8523 12.856C23.1371 12.3646 23.2783 11.7709 23.2783 11.0749C23.2783 10.3788 23.1348 9.76467 22.8523 9.27334C22.5674 8.78201 22.197 8.41123 21.7362 8.15647C21.2777 7.90398 20.7775 7.77659 20.2357 7.77659C19.6938 7.77659 19.2307 7.90398 18.7653 8.15647C18.2999 8.40896 17.9247 8.78201 17.6399 9.27334C17.3551 9.76467 17.2139 10.3652 17.2139 11.0749C17.2139 11.7846 17.3551 12.3646 17.6399 12.856C17.9247 13.3473 18.2999 13.7226 18.7653 13.9819C19.2307 14.2413 19.7193 14.3709 20.2357 14.3709Z" fill="#DDDDDD"/>
<path d="M29.0928 16.7457V5.40412H32.0312V7.79937C32.2118 7.29439 32.4897 6.85083 32.8648 6.46868C33.2399 6.08653 33.6776 5.79082 34.1778 5.577C34.6779 5.36546 35.192 5.25854 35.7199 5.25854C36.5952 5.25854 37.3617 5.44962 38.0239 5.83177C38.6838 6.21391 39.1933 6.76211 39.5568 7.48092C39.918 8.19744 40.0986 9.06183 40.0986 10.0695V16.7435H37.181V10.6018C37.181 9.70101 36.9448 8.99586 36.4725 8.48405C36.0001 7.97225 35.3818 7.71521 34.6177 7.71521C34.1037 7.71521 33.6521 7.84714 33.2631 8.11328C32.8741 8.37942 32.5707 8.74564 32.3554 9.20741C32.1401 9.67144 32.0335 10.2037 32.0335 10.8042V16.7412H29.0951L29.0928 16.7457Z" fill="#DDDDDD"/>
<path d="M47.0984 16.889C46.2648 16.889 45.5146 16.7571 44.8477 16.491C44.1808 16.2248 43.6251 15.8541 43.1805 15.3764C42.7359 14.8987 42.4233 14.3664 42.2427 13.7795L44.9936 13.1654C45.1186 13.6158 45.3687 13.9752 45.7438 14.2413C46.1189 14.5074 46.5566 14.6394 47.0567 14.6394C47.6403 14.6394 48.0802 14.5302 48.3789 14.3118C48.6776 14.0935 48.8281 13.8205 48.8281 13.4929C48.8281 13.1654 48.6707 12.8879 48.3581 12.7059C48.0455 12.5216 47.6426 12.3715 47.1494 12.2555C46.6561 12.1395 46.1305 12.0098 45.5771 11.8665C45.0214 11.7232 44.4934 11.5322 43.9932 11.2933C43.4931 11.0545 43.0855 10.7269 42.7753 10.3106C42.4627 9.89437 42.3052 9.33708 42.3052 8.6433C42.3052 8.02913 42.4881 7.46273 42.8586 6.9441C43.2268 6.42547 43.7501 6.01603 44.4309 5.71577C45.1117 5.41551 45.9244 5.26538 46.8692 5.26538C47.6889 5.26538 48.4113 5.38821 49.0365 5.63388C49.6617 5.87955 50.1758 6.23212 50.5787 6.68934C50.9816 7.14655 51.2595 7.6811 51.4123 8.29527L48.7448 8.99132C48.6197 8.51364 48.3998 8.14969 48.0895 7.89492C47.7769 7.64243 47.3415 7.51505 46.7881 7.51505C46.2347 7.51505 45.8573 7.61514 45.5794 7.81076C45.3015 8.00866 45.1626 8.27252 45.1626 8.60008C45.1626 8.92763 45.3201 9.20287 45.6327 9.38712C45.9453 9.57137 46.3482 9.72832 46.8414 9.85798C47.3346 9.98764 47.8579 10.1241 48.4137 10.2674C48.9694 10.4107 49.495 10.6041 49.9859 10.8497C50.4768 11.0954 50.882 11.4298 51.1946 11.8529C51.5072 12.276 51.6624 12.8355 51.6624 13.5316C51.6624 14.1458 51.4748 14.7076 51.0997 15.2194C50.7246 15.7312 50.1966 16.1384 49.5159 16.4387C48.8351 16.7389 48.0293 16.889 47.0984 16.889Z" fill="#DDDDDD"/>
<path d="M53.9551 16.7457V1.59631H56.8935V9.98992C57.5882 9.85344 58.2481 9.58502 58.8733 9.1824C59.4985 8.77978 60.0404 8.25888 60.4989 7.61742C60.9573 6.97595 61.2769 6.23896 61.4575 5.40642H64.5835C64.3612 6.2799 64.0023 7.09196 63.5114 7.84261C63.0182 8.59326 62.4439 9.24837 61.7933 9.80794C61.1403 10.3675 60.4595 10.7838 59.7509 11.0567C60.2928 11.2069 60.8346 11.4639 61.3765 11.8256C61.9183 12.1873 62.4254 12.624 62.8978 13.1358C63.3702 13.6476 63.7731 14.2095 64.1065 14.8236C64.44 15.4378 64.6622 16.0793 64.7734 16.748H61.6474C61.5085 16.1202 61.2792 15.5515 60.9597 15.0397C60.6401 14.5279 60.2673 14.0775 59.8436 13.6886C59.4198 13.2996 58.9544 12.9834 58.4473 12.7377C57.9402 12.4921 57.4238 12.3419 56.8935 12.2874V16.7503H53.9551V16.7457Z" fill="#DDDDDD"/>
<path d="M85.1449 11.1562C84.8531 10.6308 84.4572 10.2009 83.957 9.86649C83.5935 9.6231 83.1952 9.4616 82.7668 9.38198C83.0539 9.29327 83.3249 9.17726 83.5819 9.0385C84.082 8.76554 84.4849 8.3834 84.7906 7.89206C85.0963 7.40073 85.2491 6.81386 85.2491 6.13145C85.2491 5.44904 85.0638 4.79166 84.698 4.23891C84.3298 3.68616 83.7949 3.24942 83.0933 2.92869C82.3917 2.60796 81.5326 2.44873 80.5184 2.44873H74.4956V16.7383H80.7685C81.7827 16.7383 82.6464 16.5746 83.3642 16.247C84.0797 15.9194 84.6285 15.4622 85.0106 14.8754C85.3926 14.2885 85.5825 13.6197 85.5825 12.8691C85.5825 12.2549 85.4366 11.6862 85.1449 11.1608V11.1562ZM77.4341 4.77801H80.0807C80.7615 4.77801 81.2918 4.93497 81.6739 5.24887C82.0559 5.56278 82.2458 5.99952 82.2458 6.55909C82.2458 7.14596 82.0536 7.58953 81.6739 7.88979C81.2918 8.19005 80.7592 8.34018 80.0807 8.34018H77.4341V4.77801ZM82.0189 13.8972C81.6299 14.218 81.0811 14.3795 80.3725 14.3795H77.4341V10.5512H80.31C81.0047 10.5512 81.5604 10.7241 81.9772 11.0721C82.394 11.4201 82.6024 11.9001 82.6024 12.5142C82.6024 13.1284 82.4079 13.5765 82.0189 13.8972Z" fill="#DDDDDD"/>
<path d="M93.2747 16.8771C92.1633 16.8771 91.1652 16.6383 90.283 16.1606C89.4008 15.6829 88.6992 15.0073 88.1782 14.1338C87.6572 13.2604 87.3955 12.2299 87.3955 11.0425C87.3955 9.85515 87.6595 8.82926 88.1874 7.96261C88.7154 7.09595 89.4309 6.42719 90.334 5.95633C91.237 5.48547 92.2443 5.2489 93.3558 5.2489C94.4672 5.2489 95.4699 5.48547 96.366 5.95633C97.2621 6.42719 97.973 7.09595 98.501 7.96261C99.0289 8.82926 99.2929 9.85515 99.2929 11.0425C99.2929 12.2299 99.0243 13.2604 98.4917 14.1338C97.9568 15.0073 97.2343 15.6829 96.3243 16.1606C95.4143 16.6383 94.3955 16.8771 93.2701 16.8771H93.2747ZM93.2747 14.359C93.7888 14.359 94.275 14.2407 94.7335 13.9996C95.192 13.7608 95.5671 13.3923 95.8589 12.8941C96.1507 12.396 96.2965 11.7795 96.2965 11.0425C96.2965 10.3055 96.153 9.69137 95.8705 9.20004C95.5857 8.7087 95.2175 8.34475 94.7659 8.10591C94.3144 7.86707 93.8305 7.74651 93.3164 7.74651C92.8023 7.74651 92.3277 7.86707 91.89 8.10591C91.4524 8.34475 91.0935 8.71098 90.8156 9.20004C90.5377 9.69137 90.3988 10.3055 90.3988 11.0425C90.3988 11.7795 90.5308 12.3983 90.7948 12.8941C91.0587 13.3923 91.4107 13.7608 91.846 13.9996C92.2837 14.2385 92.7584 14.359 93.2747 14.359Z" fill="#DDDDDD"/>
<path d="M101.192 13.6834V1.58435H104.13V13.4992C104.13 13.7994 104.221 14.0246 104.401 14.1748C104.582 14.3249 104.797 14.4 105.047 14.4C105.228 14.4 105.381 14.3727 105.506 14.3181L106.048 16.5086C105.561 16.7543 105.006 16.8771 104.38 16.8771C103.866 16.8771 103.362 16.7725 102.871 16.5609C102.377 16.3494 101.975 16.0082 101.662 15.5373C101.349 15.0664 101.194 14.45 101.194 13.6834H101.192Z" fill="#DDDDDD"/>
<path d="M140.727 0C141.309 8.34872e-05 141.828 0.189122 142.245 0.566406C142.663 0.943694 142.873 1.45464 142.874 2.09961C142.874 2.74479 142.663 3.25642 142.245 3.63379C141.826 4.01105 141.319 4.20011 140.727 4.2002C140.135 4.2002 139.643 4.01108 139.227 3.63379C138.809 3.25642 138.598 2.74479 138.598 2.09961C138.598 1.45461 138.809 0.9437 139.227 0.566406C139.645 0.189052 140.145 0 140.727 0ZM140.727 1.16895C140.485 1.16895 140.292 1.25369 140.119 1.42383C139.943 1.59425 139.853 1.81422 139.853 2.08203C139.853 2.34965 139.941 2.56892 140.119 2.73926C140.294 2.90945 140.497 2.99414 140.727 2.99414C140.969 2.99405 141.176 2.9095 141.345 2.73926C141.515 2.56892 141.6 2.34965 141.6 2.08203C141.6 1.81422 141.515 1.59425 141.345 1.42383C141.176 1.25364 140.969 1.16904 140.727 1.16895Z" fill="#DDDDDD"/>
<path d="M111.271 3.6337C111.689 3.25634 111.899 2.74506 111.899 2.09988C111.899 1.4547 111.689 0.943424 111.271 0.566055C110.854 0.188685 110.335 0 109.753 0C109.17 0 108.671 0.188685 108.253 0.566055C107.834 0.943424 107.624 1.4547 107.624 2.09988C107.624 2.74506 107.834 3.25634 108.253 3.6337C108.669 4.01107 109.16 4.19976 109.753 4.19976C110.345 4.19976 110.852 4.01107 111.271 3.6337Z" fill="#DDDDDD"/>
<path d="M108.282 16.7338V5.39221H111.242V16.7338H108.282Z" fill="#DDDDDD"/>
<path d="M128.451 13.6834V1.58435H131.389V13.4992C131.389 13.7994 131.479 14.0246 131.66 14.1748C131.841 14.3249 132.056 14.4 132.306 14.4C132.487 14.4 132.639 14.3727 132.764 14.3181L133.306 16.5086C132.82 16.7543 132.264 16.8771 131.639 16.8771C131.125 16.8771 130.62 16.7725 130.127 16.5609C129.634 16.3494 129.231 16.0082 128.918 15.5373C128.606 15.0664 128.448 14.45 128.448 13.6834H128.451Z" fill="#DDDDDD"/>
<path d="M139.537 16.877C138.523 16.877 137.627 16.6291 136.849 16.1309C136.071 15.6328 135.46 14.9436 135.015 14.0632C134.57 13.1829 134.348 12.1844 134.348 11.0652C134.348 9.94606 134.57 8.92927 135.015 8.05579C135.46 7.18231 136.071 6.49763 136.849 5.99947C137.627 5.50131 138.523 5.2511 139.537 5.2511C140.454 5.2511 141.253 5.48312 141.934 5.94715C142.615 6.41119 143.108 7.05265 143.414 7.87154V5.3944H146.373V16.736H144.956C144.483 16.736 144.108 16.5973 143.83 16.3175C143.553 16.0377 143.414 15.6669 143.414 15.2006V14.2384C143.108 15.0709 142.615 15.7192 141.934 16.1833C141.253 16.6473 140.454 16.8793 139.537 16.8793V16.877ZM140.371 14.359C140.913 14.359 141.413 14.2293 141.871 13.97C142.33 13.7107 142.7 13.3353 142.985 12.844C143.27 12.3527 143.414 11.759 143.414 11.0629C143.414 10.3669 143.27 9.75271 142.985 9.26138C142.7 8.77004 142.33 8.39927 141.871 8.1445C141.413 7.89201 140.913 7.76463 140.371 7.76463C139.857 7.76463 139.368 7.89201 138.903 8.1445C138.437 8.39699 138.062 8.77004 137.777 9.26138C137.493 9.75271 137.351 10.3532 137.351 11.0629C137.351 11.7726 137.493 12.3527 137.777 12.844C138.062 13.3353 138.437 13.7107 138.903 13.97C139.368 14.2293 139.857 14.359 140.371 14.359Z" fill="#DDDDDD"/>
<path d="M148.996 16.7338V5.39216H151.935V7.78741C152.116 7.28243 152.393 6.83886 152.769 6.45672C153.144 6.07457 153.581 5.77886 154.081 5.56504C154.582 5.35349 155.096 5.24658 155.624 5.24658C156.499 5.24658 157.265 5.43766 157.925 5.8198C158.585 6.20195 159.095 6.75015 159.458 7.46895C159.819 8.18548 160 9.04986 160 10.0576V16.7315H157.082V10.5898C157.082 9.68905 156.846 8.9839 156.374 8.47209C155.901 7.96029 155.283 7.70325 154.519 7.70325C154.005 7.70325 153.553 7.83518 153.164 8.10132C152.775 8.36746 152.472 8.73368 152.257 9.19544C152.041 9.65948 151.933 10.1918 151.933 10.7923V16.7292H148.994L148.996 16.7338Z" fill="#DDDDDD"/>
<path d="M121.976 18.5627H118.385C117.31 18.5627 116.553 18.1305 116.553 17.2911C116.553 16.9204 116.748 16.561 117.007 16.2903C117.824 16.6815 118.734 16.8794 119.742 16.8794C120.867 16.8794 121.883 16.6406 122.796 16.1629C123.706 15.6852 124.428 15.0096 124.963 14.1361C125.498 13.2627 125.764 12.2322 125.764 11.0448C125.764 9.85745 125.5 8.83157 124.972 7.96491C124.889 7.82615 124.796 7.69422 124.704 7.56684C125.621 6.99817 126.107 6.27254 126.107 5.34447C126.107 4.9373 126.01 4.48008 125.813 4.02515H123.176C123.347 4.40957 123.421 4.7212 123.421 5.03283C123.421 5.40133 123.294 5.75391 123.013 6.05872C122.956 6.0246 122.898 5.99048 122.84 5.96091C121.944 5.49005 120.939 5.25348 119.83 5.25348C118.72 5.25348 117.711 5.49005 116.808 5.96091C115.905 6.43177 115.189 7.10053 114.661 7.96718C114.133 8.83384 113.869 9.85972 113.869 11.0471C113.869 12.2345 114.129 13.2649 114.652 14.1384C114.786 14.3613 114.932 14.5729 115.09 14.7708C114.256 15.4441 113.531 16.4609 113.531 17.8484C113.531 20.0572 115.291 21.1831 117.634 21.1831H120.346C122.203 21.1831 122.643 21.9747 122.643 22.7436C122.643 23.2963 122.374 23.8718 121.983 24.2562L124.843 25.0001C125.674 24.0879 126.114 22.9597 126.114 21.9042C126.114 20.1277 124.794 18.5672 121.985 18.5672L121.976 18.5627ZM117.282 9.20007C117.56 8.70873 117.919 8.34478 118.357 8.10594C118.795 7.8671 119.269 7.74654 119.783 7.74654C120.297 7.74654 120.779 7.8671 121.233 8.10594C121.684 8.34478 122.053 8.71101 122.337 9.20007C122.622 9.6914 122.763 10.3056 122.763 11.0426C122.763 11.7796 122.618 12.3983 122.326 12.8942C122.034 13.3923 121.659 13.7608 121.2 13.9997C120.742 14.2385 120.256 14.3591 119.742 14.3591C119.228 14.3591 118.753 14.2408 118.313 13.9997C117.875 13.7608 117.523 13.3923 117.262 12.8942C116.998 12.396 116.866 11.7796 116.866 11.0426C116.866 10.3056 117.005 9.6914 117.282 9.20007Z" fill="#DDDDDD"/>
</svg>
