<svg width="19" height="22" viewBox="0 0 19 22" fill="none" xmlns="http://www.w3.org/2000/svg">
<path d="M4.9893 0.994141C5.01089 0.884775 5.01031 0.772187 4.98759 0.663049C4.96486 0.553912 4.92046 0.450447 4.85701 0.358789C4.79356 0.26713 4.71235 0.189143 4.6182 0.129451C4.52405 0.0697593 4.41888 0.0295769 4.30891 0.0112862C4.19894 -0.00700446 4.08642 -0.00303113 3.97802 0.0229706C3.86962 0.0489723 3.76753 0.0964731 3.67783 0.162657C3.58813 0.228842 3.51262 0.312362 3.45579 0.408268C3.39897 0.504174 3.36197 0.610512 3.347 0.720981L0.0157767 20.7083C-0.00581935 20.8177 -0.00523833 20.9303 0.0174851 21.0394C0.0402084 21.1486 0.0846118 21.252 0.148063 21.3437C0.211514 21.4353 0.292721 21.5133 0.386871 21.573C0.481021 21.6327 0.586197 21.6729 0.696164 21.6912C0.806131 21.7095 0.918651 21.7055 1.02705 21.6795C1.13546 21.6535 1.23754 21.606 1.32724 21.5398C1.41695 21.4736 1.49245 21.3901 1.54928 21.2942C1.60611 21.1983 1.6431 21.092 1.65807 20.9815L2.77403 14.2857C4.11652 14.4823 5.56726 14.5472 6.70987 15.3484C7.41681 15.8564 8.2343 16.1892 9.09503 16.3194C10.704 16.5626 12.1431 15.6782 13.7321 15.9297L15.8791 16.2528C16.3121 16.3194 16.7618 15.9863 16.8268 15.5533L18.2992 5.66952L18.3059 5.66285C18.3277 5.44543 18.2665 5.22779 18.1346 5.05358C18.0027 4.87936 17.8098 4.76144 17.5947 4.72345L15.4477 4.40032C13.8437 4.16214 12.4013 5.02159 10.8123 4.78341C10.0996 4.67519 9.42173 4.40324 8.83186 3.98891C7.60098 3.12779 6.13524 2.98455 4.69115 2.78134L4.9893 0.994141ZM4.00658 6.88708L4.55624 3.60249C5.55394 3.73907 6.60994 3.81735 7.53435 4.2171L7.043 7.49003C6.0936 7.10194 5.02094 7.02699 4.00658 6.88708ZM2.91228 13.4662L3.46193 10.1783C4.49461 10.3216 5.58892 10.3949 6.55664 10.7913L7.05632 7.50002C8.15229 7.94974 8.98677 8.72092 10.2093 8.9008L10.709 5.60289C11.9382 5.78777 12.9559 5.30808 14.1368 5.21314L13.6372 8.48773C12.4546 8.58767 11.4319 9.08735 10.206 8.90413L9.72963 12.1987C8.50374 12.0155 7.6676 11.241 6.56663 10.7929L6.06695 14.0842C5.07591 13.6861 3.96328 13.6162 2.91228 13.4662ZM9.73129 12.2004C10.9539 12.3836 11.9815 11.8806 13.1641 11.7823L13.6372 8.48773C14.7281 8.3878 15.8441 8.67262 16.9151 8.83584L16.4487 12.1271C15.3761 11.9655 14.2568 11.679 13.1658 11.7823L12.6661 15.0736C11.4852 15.1535 10.4425 15.6732 9.23161 15.49L9.73129 12.2004Z" fill="#2A7E67"/>
</svg>
