<svg width="300" height="45" viewBox="0 0 300 45" fill="none" xmlns="http://www.w3.org/2000/svg">
<path d="M280.619 5.36713C279.759 5.36713 279.007 5.62776 278.489 6.12404C278.014 6.5798 277.726 7.25053 277.726 8.11621C277.726 8.96719 278.017 9.63963 278.498 10.1007C279.016 10.597 279.765 10.8653 280.619 10.8653C281.489 10.8653 282.235 10.6006 282.746 10.1099C283.226 9.64938 283.512 8.97369 283.512 8.11621C283.512 7.24403 283.23 6.5704 282.755 6.11464C282.244 5.62451 281.495 5.36713 280.619 5.36713Z" fill="#F8F8F8"/>
<path d="M283.044 14.1956H278.237V34.6413H283.044V14.1956Z" fill="#F8F8F8"/>
<path d="M214.134 14.1956V34.6413H218.899V26.0874C218.899 21.3356 221.483 18.7999 226.13 18.6301V13.6482C223.268 13.9194 220.1 15.2068 218.807 17.6288L217.538 14.1956H214.134Z" fill="#F8F8F8"/>
<path d="M261.409 13.7233C258.56 13.7233 256.125 14.8039 254.413 16.6846C252.711 18.5535 251.71 21.2218 251.71 24.4183C251.71 27.617 252.712 30.2874 254.422 32.1568C256.14 34.0351 258.583 35.1135 261.451 35.1135C264.2 35.1135 267.561 34.3708 268.803 31.7346L269.948 34.6413H273.532V5.60583H268.682V17.7444C267.469 14.7126 265.013 13.7233 261.409 13.7233ZM268.852 24.4183C268.852 27.4323 267.251 29.3682 265.202 30.2185C264.411 30.5474 263.555 30.7124 262.704 30.7124C261.853 30.7124 260.997 30.5479 260.205 30.2188C258.159 29.3691 256.56 27.4344 256.56 24.4183C256.56 21.4021 258.159 19.4682 260.205 18.618C260.997 18.2891 261.852 18.1246 262.703 18.1246V18.1265C263.557 18.127 264.413 18.2911 265.202 18.6188C267.251 19.4691 268.852 21.4053 268.852 24.4183Z" fill="#F8F8F8"/>
<path d="M190.598 5.60583V34.6413H195.406V26.3084V25.7933H195.916H196.981H197.232L197.386 25.9966L203.911 34.6413H210.359L201.937 23.7466L201.675 23.408L201.957 23.0888L209.798 14.1956H203.551L197.368 21.5288L197.213 21.7122H196.981H195.916H195.406V21.1972V5.60583H190.598Z" fill="#F8F8F8"/>
<path d="M186.431 25.9647C186.547 25.2143 186.604 23.9643 186.604 23.2512C186.604 20.8595 185.945 18.7586 184.672 17.1479C183.402 15.5402 181.509 14.4081 179.041 13.9499C178.241 13.8013 177.372 13.7233 176.438 13.7233C173.251 13.7233 170.577 14.8185 168.7 16.6846C166.81 18.5648 165.718 21.2393 165.718 24.3756C165.718 27.0782 166.529 29.292 167.84 30.9934C169.188 32.742 171.067 33.958 173.137 34.6142C175.219 35.2738 177.494 35.3687 179.62 34.8732C181.765 34.3737 183.757 33.2707 185.244 31.54L182.07 28.9963C178.285 32.1974 171.7 31.8493 170.681 25.9647H171.248H186.431ZM170.744 22.2025C170.933 20.8186 171.597 19.6942 172.616 18.914C173.621 18.1448 174.963 17.7186 176.523 17.7186C178.113 17.7186 179.409 18.1578 180.359 18.9091C181.376 19.7137 181.988 20.8665 182.133 22.2167L182.194 22.7858H181.627H171.248H170.664L170.744 22.2025Z" fill="#F8F8F8"/>
<path d="M124.241 13.7233C121.376 13.7233 118.929 14.7621 117.215 16.6084C115.532 18.4218 114.542 21.0261 114.542 24.2039C114.542 27.3857 115.525 29.9837 117.213 31.7869C120.684 35.4947 128.861 35.9948 131.813 31.7201V32.8368C131.813 34.8314 131.271 36.3312 130.376 37.4062C129.749 38.1605 128.952 38.7003 128.052 39.0485C127.17 39.3898 126.189 39.5487 125.172 39.5487C122.629 39.5487 119.822 38.5534 117.748 36.9667L115.193 40.5228C117.945 42.7458 121.524 43.913 124.962 43.913C126.719 43.913 128.432 43.6096 129.972 42.9887C131.5 42.3722 132.864 41.4403 133.933 40.1801C135.437 38.4095 136.365 35.9758 136.365 32.8368V14.1957H132.753L131.72 17.2617C129.775 14.7776 126.989 13.7233 124.241 13.7233ZM125.518 18.1055C127.316 18.1055 128.892 18.6695 130.005 19.7518C131.058 20.7735 131.685 22.2429 131.685 24.1179C131.685 26.0008 131.052 27.4956 129.987 28.5386C128.869 29.6338 127.288 30.2165 125.475 30.2165C123.678 30.2165 122.143 29.633 121.061 28.5653C120.007 27.5254 119.393 26.0403 119.393 24.2039C119.393 22.3436 120.008 20.8356 121.07 19.7797C122.158 18.6987 123.701 18.1055 125.518 18.1055Z" fill="#F8F8F8"/>
<path d="M91.8306 14.1956L99.5098 32.9397C99.9408 33.9916 100 34.9476 99.7962 35.7784C99.5619 36.7291 98.9873 37.5058 98.2275 38.0769C97.5994 38.5489 96.8423 38.8818 95.933 39.0999C95.1809 39.2803 94.3161 39.3844 93.3241 39.4267V43.8288C96.3782 43.7804 98.6279 43.2797 100.443 41.9502C102.374 40.5354 103.866 38.1567 105.359 34.366V34.3639L113.373 14.1956H107.81L102.707 28.8869L97.4316 14.1956H91.8306Z" fill="#F8F8F8"/>
<path d="M68.4246 5.60583V34.6413H80.0673C83.3878 34.6413 85.9144 33.9101 87.6024 32.5479C89.2844 31.1904 90.1491 29.176 90.1491 26.6089C90.1491 23.0345 87.3922 20.0938 83.9508 19.5237C87.1039 18.9172 88.35 15.8374 88.35 12.65C88.35 7.08786 83.3157 5.60583 78.4528 5.60583H68.4246ZM74.1252 10.2024H78.1403C79.9013 10.2024 81.0976 10.4343 81.8811 10.9696C82.733 11.5519 83.0743 12.4285 83.0743 13.6807C83.0743 15.0152 82.6988 16.0471 81.8735 16.7609C81.0764 17.4497 79.8823 17.8038 78.2255 17.8038H74.1252H73.6152V17.2888V10.7173V10.2024H74.1252ZM74.1252 22.1855H79.5568C81.2554 22.1855 82.543 22.4506 83.4297 23.0875C84.3655 23.7599 84.8309 24.7976 84.8309 26.3084C84.8309 27.6186 84.4818 28.5588 83.598 29.1907C82.7767 29.7783 81.5132 30.0446 79.6418 30.0446H74.1252H73.6152V29.5295V22.7005V22.1855H74.1252Z" fill="#F8F8F8"/>
<path d="M289.607 14.1957H287.096V18.6638H289.607H290.117V19.1787V21.7512V28.4559C290.117 30.9045 290.69 32.5869 291.787 33.6407C292.884 34.6951 294.544 35.1566 296.711 35.1566C297.394 35.1566 298.033 35.1149 298.639 35.0426C299.111 34.9861 299.558 34.9133 299.986 34.8269V30.6548C299.782 30.6962 299.569 30.7323 299.356 30.7615C298.887 30.8256 298.411 30.8609 297.987 30.8609C296.971 30.8609 296.223 30.6421 295.703 30.0708V30.0689C295.202 29.5163 294.967 28.6758 294.967 27.4251V21.7512V19.1787V18.6638H295.477H299.986V14.1957H295.477H294.967V13.6807V8.95641V8.1463H290.117V13.6807V14.1957H289.607Z" fill="#F8F8F8"/>
<path fill-rule="evenodd" clip-rule="evenodd" d="M2.32539 10.5891L21.9866 1.03528C22.6026 0.735999 23.2279 0.507692 23.8568 0.350186C24.0665 0.298026 24.2687 0.341293 24.4389 0.476054C24.6093 0.610473 24.7003 0.798249 24.7003 1.01647V10.6467C24.7003 12.268 23.8363 13.6556 22.3897 14.3588L0.98971 24.7582C0.772913 24.8637 0.536637 24.8503 0.33305 24.7209C0.129125 24.5916 0.0151367 24.3824 0.0151367 24.1394V14.3012C0.0151367 12.6805 0.87894 11.2925 2.32539 10.5891ZM27.7116 0.271689C28.4571 0.426459 29.1985 0.681102 29.9268 1.03528L40.2133 6.03358C41.6596 6.73645 42.5239 8.12425 42.5239 9.74532V19.5834C42.5239 19.8262 42.4098 20.0354 42.2058 20.1648C42.0023 20.2941 41.766 20.3075 41.5494 20.2021L29.2051 14.2042C27.7586 13.5012 26.8945 12.1132 26.8945 10.4925V0.943955C26.8945 0.730184 26.9807 0.546683 27.145 0.411922C27.309 0.27699 27.5044 0.228764 27.7116 0.271689Z" fill="#E2BA7B"/>
<path fill-rule="evenodd" clip-rule="evenodd" d="M49.1656 32.7905L29.5042 42.345C28.9243 42.6268 28.3362 42.8457 27.7443 43.0017C27.5339 43.0573 27.3295 43.015 27.1571 42.8803C26.9848 42.7462 26.893 42.5571 26.893 42.3373V32.6836C26.893 31.0624 27.7572 29.6744 29.2036 28.9715L50.5013 18.6228C50.7181 18.5173 50.9543 18.5308 51.1579 18.6602C51.3618 18.7894 51.4758 18.9989 51.4758 19.2415V29.0787C51.4758 30.6995 50.6122 32.0874 49.1656 32.7905ZM23.8904 43.1313C23.1068 42.979 22.3284 42.7164 21.5637 42.345L11.2771 37.3462C9.83053 36.6431 8.96655 35.255 8.96655 33.6343V23.7967C8.96655 23.5541 9.08071 23.3447 9.2848 23.2154C9.48822 23.086 9.72433 23.0728 9.9413 23.1782L22.3882 29.2262C23.8348 29.9294 24.6988 31.317 24.6988 32.9382V42.4575C24.6988 42.6694 24.6136 42.8516 24.4518 42.9867C24.2897 43.1216 24.0962 43.1715 23.8904 43.1313Z" fill="#2A7E67"/>
<path d="M149.711 13.7233C146.846 13.7233 144.399 14.7621 142.685 16.6084C141.002 18.4218 140.012 21.0261 140.012 24.2039C140.012 27.3857 140.995 29.9837 142.683 31.7869C146.154 35.4947 154.33 35.9948 157.283 31.7201V32.8368C157.283 34.8314 156.74 36.3312 155.846 37.4062C155.219 38.1605 154.422 38.7003 153.522 39.0485C152.64 39.3898 151.659 39.5487 150.642 39.5487C148.099 39.5487 145.292 38.5534 143.217 36.9667L140.663 40.5228C143.415 42.7458 146.994 43.913 150.432 43.913C152.188 43.913 153.901 43.6096 155.442 42.9887C156.97 42.3722 158.334 41.4403 159.403 40.1801C160.906 38.4095 161.835 35.9758 161.835 32.8368V14.1957H158.223L157.19 17.2617C155.245 14.7776 152.459 13.7233 149.711 13.7233ZM150.987 18.1055C152.785 18.1055 154.362 18.6695 155.475 19.7518C156.528 20.7735 157.155 22.2429 157.155 24.1179C157.155 26.0008 156.522 27.4956 155.457 28.5386C154.339 29.6338 152.758 30.2165 150.945 30.2165C149.148 30.2165 147.613 29.633 146.531 28.5653C145.477 27.5254 144.862 26.0403 144.862 24.2039C144.862 22.3436 145.478 20.8356 146.54 19.7797C147.627 18.6987 149.171 18.1055 150.987 18.1055Z" fill="#F8F8F8"/>
<path d="M248.476 25.9647C248.592 25.2143 248.649 23.9643 248.649 23.2512C248.649 20.8595 247.99 18.7586 246.717 17.1479C245.447 15.5402 243.554 14.4081 241.087 13.9499C240.286 13.8013 239.417 13.7233 238.483 13.7233C235.296 13.7233 232.622 14.8185 230.746 16.6846C228.855 18.5648 227.763 21.2393 227.763 24.3756C227.763 27.0782 228.574 29.292 229.886 30.9934C231.233 32.742 233.112 33.958 235.182 34.6142C237.264 35.2738 239.539 35.3687 241.665 34.8732C243.81 34.3737 245.802 33.2707 247.29 31.54L244.115 28.9963C240.33 32.1974 233.746 31.8493 232.726 25.9647H233.293H248.476ZM232.789 22.2025C232.978 20.8186 233.642 19.6942 234.662 18.914C235.666 18.1448 237.008 17.7186 238.568 17.7186C240.158 17.7186 241.454 18.1578 242.404 18.9091C243.421 19.7137 244.033 20.8665 244.178 22.2167L244.24 22.7858H243.673H233.293H232.709L232.789 22.2025Z" fill="#F8F8F8"/>
</svg>
